<svg xmlns="http://www.w3.org/2000/svg" width="512" height="512" viewBox="0 0 512 512" role="img" aria-label="QR Code Mercado Pago provisório">
  <rect width="512" height="512" fill="#ffffff"/>
  <rect x="24" y="24" width="464" height="464" fill="none" stroke="#111111" stroke-width="8"/>
  <rect x="56" y="56" width="96" height="96" fill="none" stroke="#111111" stroke-width="10"/>
  <rect x="72" y="72" width="64" height="64" fill="#111111"/>
  <rect x="360" y="56" width="96" height="96" fill="none" stroke="#111111" stroke-width="10"/>
  <rect x="376" y="72" width="64" height="64" fill="#111111"/>
  <rect x="56" y="360" width="96" height="96" fill="none" stroke="#111111" stroke-width="10"/>
  <rect x="72" y="376" width="64" height="64" fill="#111111"/>
  <g fill="#111111">
    <rect x="196" y="196" width="24" height="24"/>
    <rect x="236" y="196" width="24" height="24"/>
    <rect x="316" y="196" width="24" height="24"/>
    <rect x="356" y="196" width="24" height="24"/>
    <rect x="196" y="236" width="24" height="24"/>
    <rect x="236" y="236" width="24" height="24"/>
    <rect x="276" y="236" width="24" height="24"/>
    <rect x="356" y="236" width="24" height="24"/>
    <rect x="196" y="276" width="24" height="24"/>
    <rect x="276" y="276" width="24" height="24"/>
    <rect x="316" y="276" width="24" height="24"/>
    <rect x="356" y="276" width="24" height="24"/>
    <rect x="236" y="316" width="24" height="24"/>
    <rect x="276" y="316" width="24" height="24"/>
    <rect x="316" y="316" width="24" height="24"/>
  </g>
  <rect x="28" y="420" width="456" height="56" fill="#ffffff"/>
  <text x="256" y="452" text-anchor="middle" font-family="Arial, sans-serif" font-size="20" fill="#111111">SUBSTITUIR PELO QR MERCADO PAGO</text>
</svg>
